<svg width="298" height="332" viewBox="0 0 298 332" fill="none" xmlns="http://www.w3.org/2000/svg">
  <path d="M297.247 92.2934V227.799C297.247 243.198 289.021 257.466 275.689 265.145L170.2 326.037C156.868 333.756 140.417 333.756 127.085 326.037L92.9355 306.312C117.69 320.619 148.682 302.725 148.682 274.15V191.779C148.682 176.38 156.907 162.113 170.239 154.433L287.579 86.6799C291.906 84.1849 297.286 87.3036 297.286 92.2934H297.247Z" fill="#0D55FF"/>
  <path d="M222.945 123.988L170.201 154.433C156.869 162.152 148.643 176.381 148.643 191.779V274.151C148.643 302.765 117.69 320.619 92.8971 306.312L18.595 263.392C43.3494 277.699 74.3411 259.805 74.3411 231.231V148.859C74.3411 133.46 82.5665 119.193 95.8988 111.513L213.238 43.7599C217.566 41.265 222.945 44.3837 222.945 49.3735V123.988Z" fill="#00B5FF"/>
  <path d="M138.936 0.878096L21.5578 68.631C8.22547 76.3497 0 90.5786 0 106.016V231.269C0 244.563 7.09496 256.803 18.595 263.431C43.3494 277.737 74.3411 259.844 74.3411 231.269V148.898C74.3411 133.499 82.5666 119.231 95.8989 111.552L148.643 81.1057V6.49169C148.643 1.50183 143.264 -1.61683 138.936 0.878096Z" fill="#74EAFF"/>
</svg>
